<svg xmlns="http://www.w3.org/2000/svg" viewBox="0 0 800 600" width="800" height="600">
  <defs>
    <pattern id="diag-foto-01" width="28" height="28" patternTransform="rotate(45)" patternUnits="userSpaceOnUse">
      <rect width="28" height="28" fill="#eef6f4"/>
      <line x1="0" y1="0" x2="0" y2="28" stroke="#d7ebe6" stroke-width="14"/>
    </pattern>
  </defs>
  <rect width="800" height="600" fill="url(#diag-foto-01)"/>
  <rect x="14" y="14" width="772" height="572" fill="none" stroke="#0f766e" stroke-width="3" stroke-dasharray="10 8" rx="14"/>
  <g transform="translate(400,250)" fill="none" stroke="#0f766e" stroke-width="10" stroke-linecap="round" stroke-linejoin="round">
    <path d="M -60 -70 C -95 -100 -95 -20 -70 40 C -55 78 -40 90 -22 40 C -14 18 14 18 22 40 C 40 90 55 78 70 40 C 95 -20 95 -100 60 -70 C 30 -90 -30 -90 -60 -70 Z"/>
  </g>
  <text x="400" y="400" font-family="'Plus Jakarta Sans', Arial, sans-serif" font-size="30" font-weight="700" fill="#0f4c46" text-anchor="middle">Pasien Tersenyum</text>
  <text x="400" y="440" font-family="'Plus Jakarta Sans', Arial, sans-serif" font-size="18" fill="#4b7d76" text-anchor="middle">Placeholder gambar — ganti dengan foto asli</text>
</svg>
